<?xml version="1.0" encoding="UTF-8"?>

<!DOCTYPE svg PUBLIC '-//W3C//DTD SVG 1.0//EN' 'http://www.w3.org/TR/2001/REC-SVG-20010904/DTD/svg10.dtd'>
<svg style="fill-opacity:1; color-rendering:auto; color-interpolation:auto; stroke:black; text-rendering:auto; stroke-linecap:square; stroke-miterlimit:10; stroke-opacity:1; shape-rendering:auto; fill:black; stroke-dasharray:none; font-weight:normal; stroke-width:1; font-family:&apos;Dialog&apos;; font-style:normal; stroke-linejoin:miter; font-size:12; stroke-dashoffset:0; image-rendering:auto;" xmlns="http://www.w3.org/2000/svg" width="669.0" xmlns:xlink="http://www.w3.org/1999/xlink" height="316.0">
  <!--Generated by the Batik Graphics2D SVG Generator-->
  <defs id="genericDefs" />
  <g>
    <g style="fill:white; stroke:white;">
      <rect x="0" y="0" width="721" style="stroke:none;" height="400" />
    </g>
    <g style="font-family:sans-serif; font-size:14;">
      <text xml:space="preserve" x="359" y="139" style="stroke:none;">devices_available</text>
      <text xml:space="preserve" x="49" y="159" style="stroke:none;">replicas_available</text>
      <text xml:space="preserve" x="476" y="139" style="stroke:none;">flash_corrupted</text>
      <text xml:space="preserve" x="267" y="249" style="stroke:none;">power_cycle_in</text>
      <text xml:space="preserve" x="155" y="169" style="stroke:none;">sefi_in</text>
      <text xml:space="preserve" x="280" y="49" style="stroke:none;">kernel_not_hit</text>
      <text xml:space="preserve" x="274" y="159" style="stroke:none;">device_disabled</text>
      <text xml:space="preserve" x="93" y="249" style="stroke:none;">flash_power_cycled</text>
      <text xml:space="preserve" x="314" y="89" style="stroke:none;">kernel_hit</text>
      <text xml:space="preserve" x="224" y="114" style="stroke:none;">seu</text>
      <text xml:space="preserve" x="224" y="184" style="stroke:none;">sefi</text>
      <text xml:space="preserve" x="196" y="264" style="stroke:none;">power_cycle</text>
      <text xml:space="preserve" x="396" y="59" style="stroke:none;">replicas_corrupted</text>
      <text xml:space="preserve" x="522" y="69" style="stroke:none;">local_device_corrupted</text>
      <line x1="155" x2="101" y1="225" style="fill:none;" y2="312" />
      <line x1="101" x2="504" y1="312" style="fill:none;" y2="305" />
      <line x1="504" x2="595" y1="305" style="fill:none;" y2="45" />
      <line x1="325" x2="595" y1="135" style="fill:none;" y2="45" />
      <line x1="345" x2="595" y1="65" style="fill:none;" y2="45" />
      <line x1="345" x2="455" y1="65" style="fill:none;" y2="35" />
      <line x1="235" x2="325" y1="79" style="fill:none;" y2="25" />
      <line x1="325" x2="95" y1="25" style="fill:none;" y2="35" />
      <line x1="95" x2="105" y1="35" style="fill:none;" y2="135" />
      <line x1="325" x2="415" y1="135" style="fill:none;" y2="115" />
      <line x1="155" x2="142" y1="225" style="fill:none;" y2="288" />
      <line x1="142" x2="393" y1="288" style="fill:none;" y2="278" />
      <line x1="393" x2="415" y1="278" style="fill:none;" y2="115" />
      <line x1="345" x2="415" y1="65" style="fill:none;" y2="115" />
      <line x1="155" x2="105" y1="225" style="fill:none;" y2="135" />
      <line x1="325" x2="105" y1="135" style="fill:none;" y2="135" />
      <line x1="155" x2="120" y1="225" style="fill:none;" y2="300" />
      <line x1="120" x2="427" y1="300" style="fill:none;" y2="291" />
      <line x1="427" x2="525" y1="291" style="fill:none;" y2="115" />
      <line x1="345" x2="525" y1="65" style="fill:none;" y2="115" />
      <line x1="325" x2="525" y1="135" style="fill:none;" y2="115" />
      <line x1="105" x2="315" y1="135" style="fill:none;" y2="225" />
      <line x1="105" x2="175" y1="135" style="fill:none;" y2="145" />
      <line x1="235" x2="325" y1="155" style="fill:none;" y2="135" />
      <line x1="235" x2="155" y1="235" style="fill:none;" y2="225" />
      <line x1="235" x2="345" y1="91" style="fill:none;" y2="65" />
      <line x1="105" x2="219" y1="135" style="fill:none;" y2="90" />
      <polygon style="stroke:none;" points=" 229 87 219 87 222 94 229 87" />
      <line x1="229" x2="219" y1="87" style="fill:none;" y2="90" />
      <line x1="175" x2="235" y1="145" style="fill:none;" y2="155" />
      <line x1="315" x2="235" y1="225" style="fill:none;" y2="235" />
      <circle style="fill:blue; stroke:none;" r="9.5" cx="414.5" cy="114.5" />
      <circle style="fill:blue; stroke:none;" r="9.5" cx="104.5" cy="134.5" />
      <circle style="fill:blue; stroke:none;" r="9.5" cx="524.5" cy="114.5" />
      <polygon style="fill:red; stroke:none;" points=" 305 225 325 215 325 235" />
      <polygon style="fill:red; stroke:none;" points=" 165 145 185 135 185 155" />
      <polygon style="stroke:none;" points=" 335 25 315 15 315 35" />
      <polygon style="stroke:none;" points=" 335 135 315 125 315 145" />
      <polygon style="stroke:none;" points=" 165 225 145 215 145 235" />
      <polygon style="stroke:none;" points=" 355 65 335 55 335 75" />
      <rect x="229" y="70" width="6" style="fill:blue; stroke:none;" rx="3" ry="3" height="30" />
      <circle style="fill:blue; stroke:none;" r="3" cx="238" cy="79" />
      <circle style="fill:blue; stroke:none;" r="3" cx="238" cy="91" />
      <rect x="232" y="140" width="6" style="fill:blue; stroke:none;" rx="3" ry="3" height="30" />
      <rect x="232" y="220" width="6" style="fill:blue; stroke:none;" rx="3" ry="3" height="30" />
      <circle style="fill:blue; stroke:none;" r="9.5" cx="454.5" cy="34.5" />
      <circle style="fill:blue; stroke:none;" r="9.5" cx="594.5" cy="44.5" />
    </g>
  </g>
</svg>
