<?xml version="1.0" encoding="UTF-8"?>

<!DOCTYPE svg PUBLIC '-//W3C//DTD SVG 1.0//EN' 'http://www.w3.org/TR/2001/REC-SVG-20010904/DTD/svg10.dtd'>
<svg style="fill-opacity:1; color-rendering:auto; color-interpolation:auto; stroke:black; text-rendering:auto; stroke-linecap:square; stroke-miterlimit:10; stroke-opacity:1; shape-rendering:auto; fill:black; stroke-dasharray:none; font-weight:normal; stroke-width:1; font-family:&apos;Dialog&apos;; font-style:normal; stroke-linejoin:miter; font-size:12; stroke-dashoffset:0; image-rendering:auto;" xmlns="http://www.w3.org/2000/svg" width="498.0" xmlns:xlink="http://www.w3.org/1999/xlink" height="296.0">
  <!--Generated by the Batik Graphics2D SVG Generator-->
  <defs id="genericDefs" />
  <g>
    <g style="fill:white; stroke:white;">
      <rect x="0" y="0" width="632" style="stroke:none;" height="400" />
    </g>
    <g style="font-family:sans-serif; font-size:14;">
      <text xml:space="preserve" x="266" y="69" style="stroke:none;">flash_corrupted</text>
      <text xml:space="preserve" x="15" y="179" style="stroke:none;">ram_working</text>
      <text xml:space="preserve" x="239" y="139" style="stroke:none;">ram_corrupted</text>
      <text xml:space="preserve" x="412" y="79" style="stroke:none;">system_failed</text>
      <text xml:space="preserve" x="196" y="279" style="stroke:none;">watchdog_in</text>
      <text xml:space="preserve" x="48" y="79" style="stroke:none;">random_failure_in</text>
      <text xml:space="preserve" x="293" y="109" style="stroke:none;">failure_condition</text>
      <text xml:space="preserve" x="30" y="249" style="stroke:none;">wd_reboot_complete</text>
      <text xml:space="preserve" x="121" y="294" style="stroke:none;">watchdog_reboot</text>
      <text xml:space="preserve" x="138" y="64" style="stroke:none;">random_failure</text>
      <text xml:space="preserve" x="118" y="134" style="stroke:none;">bit_error</text>
      <text xml:space="preserve" x="110" y="184" style="stroke:none;">page_error</text>
      <text xml:space="preserve" x="376" y="74" style="stroke:none;">failure</text>
      <text xml:space="preserve" x="115" y="234" style="stroke:none;">device_error</text>
      <line x1="155" x2="265" y1="205" style="fill:none;" y2="127" />
      <polygon style="stroke:none;" points=" 275 121 265 123 270 129 275 121" />
      <line x1="275" x2="265" y1="121" style="fill:none;" y2="127" />
      <line x1="55" x2="142" y1="155" style="fill:none;" y2="200" />
      <polygon style="stroke:none;" points=" 152 204 145 196 142 203 152 204" />
      <line x1="152" x2="142" y1="204" style="fill:none;" y2="200" />
      <line x1="235" x2="175" y1="255" style="fill:none;" y2="265" />
      <line x1="175" x2="95" y1="265" style="fill:none;" y2="225" />
      <line x1="285" x2="235" y1="115" style="fill:none;" y2="255" />
      <line x1="95" x2="55" y1="225" style="fill:none;" y2="155" />
      <line x1="145" x2="265" y1="161" style="fill:none;" y2="121" />
      <polygon style="stroke:none;" points=" 275 118 265 117 267 125 275 118" />
      <line x1="275" x2="265" y1="118" style="fill:none;" y2="121" />
      <line x1="145" x2="164" y1="149" style="fill:none;" y2="137" />
      <line x1="164" x2="75" y1="137" style="fill:none;" y2="153" />
      <polygon style="stroke:none;" points=" 65 154 75 156 73 149 65 154" />
      <line x1="65" x2="75" y1="154" style="fill:none;" y2="153" />
      <line x1="55" x2="130" y1="155" style="fill:none;" y2="155" />
      <polygon style="stroke:none;" points=" 139 155 130 151 130 159 139 155" />
      <line x1="139" x2="130" y1="155" style="fill:none;" y2="155" />
      <line x1="145" x2="156" y1="99" style="fill:none;" y2="84" />
      <line x1="156" x2="63" y1="84" style="fill:none;" y2="86" />
      <line x1="63" x2="57" y1="86" style="fill:none;" y2="135" />
      <polygon style="stroke:none;" points=" 56 145 61 136 53 135 56 145" />
      <line x1="56" x2="57" y1="145" style="fill:none;" y2="135" />
      <line x1="185" x2="265" y1="35" style="fill:none;" y2="99" />
      <polygon style="stroke:none;" points=" 275 107 270 98 265 104 275 107" />
      <line x1="275" x2="265" y1="107" style="fill:none;" y2="99" />
      <line x1="145" x2="266" y1="111" style="fill:none;" y2="115" />
      <polygon style="stroke:none;" points=" 275 115 266 111 266 119 275 115" />
      <line x1="275" x2="266" y1="115" style="fill:none;" y2="115" />
      <line x1="395" x2="435" y1="45" style="fill:none;" y2="53" />
      <polygon style="stroke:none;" points=" 445 54 437 49 435 56 445 54" />
      <line x1="445" x2="435" y1="54" style="fill:none;" y2="53" />
      <line x1="285" x2="105" y1="115" style="fill:none;" y2="55" />
      <line x1="285" x2="345" y1="115" style="fill:none;" y2="85" />
      <line x1="315" x2="345" y1="45" style="fill:none;" y2="85" />
      <line x1="455" x2="345" y1="55" style="fill:none;" y2="85" />
      <line x1="105" x2="185" y1="55" style="fill:none;" y2="35" />
      <line x1="55" x2="129" y1="155" style="fill:none;" y2="113" />
      <polygon style="stroke:none;" points=" 139 108 129 109 133 116 139 108" />
      <line x1="139" x2="129" y1="108" style="fill:none;" y2="113" />
      <line x1="345" x2="395" y1="85" style="fill:none;" y2="45" />
      <circle style="fill:blue; stroke:none;" r="9.5" cx="314.5" cy="44.5" />
      <circle style="fill:blue; stroke:none;" r="9.5" cx="54.5" cy="154.5" />
      <circle style="fill:blue; stroke:none;" r="9.5" cx="284.5" cy="114.5" />
      <circle style="fill:blue; stroke:none;" r="9.5" cx="454.5" cy="54.5" />
      <polygon style="fill:red; stroke:none;" points=" 225 255 245 245 245 265" />
      <polygon style="fill:red; stroke:none;" points=" 95 55 115 45 115 65" />
      <polygon style="fill:red; stroke:none;" points=" 335 85 355 75 355 95" />
      <polygon style="stroke:none;" points=" 105 225 85 215 85 235" />
      <rect x="172" y="250" width="6" style="fill:blue; stroke:none;" rx="3" ry="3" height="30" />
      <rect x="182" y="20" width="6" style="fill:blue; stroke:none;" rx="3" ry="3" height="30" />
      <rect x="139" y="90" width="6" style="fill:blue; stroke:none;" rx="3" ry="3" height="30" />
      <circle style="fill:blue; stroke:none;" r="3" cx="148" cy="99" />
      <circle style="fill:blue; stroke:none;" r="3" cx="148" cy="111" />
      <rect x="139" y="140" width="6" style="fill:blue; stroke:none;" rx="3" ry="3" height="30" />
      <circle style="fill:blue; stroke:none;" r="3" cx="148" cy="149" />
      <circle style="fill:blue; stroke:none;" r="3" cx="148" cy="161" />
      <rect x="394" y="30" width="3" style="fill:blue; stroke:none;" rx="1.5" ry="1.5" height="30" />
      <rect x="152" y="190" width="6" style="fill:blue; stroke:none;" rx="3" ry="3" height="30" />
    </g>
  </g>
</svg>
